<?xml version="1.0" encoding="UTF-8"?>
<svg id="glyphicons-basic" xmlns="http://www.w3.org/2000/svg" viewBox="0 0 32 32">
  <defs>
    <style>
      .cls-1 {
        fill: #fff;
      }
    </style>
  </defs>
  <path id="moon" class="cls-1" d="M25.3,20.87c-.05,0-.1,0-.15.01-.54.08-1.09.12-1.64.12-.76,0-1.52-.08-2.26-.23-4.7-.96-8.31-4.72-9.1-9.45-.27-1.69-.16-3.42.32-5.06.16-.53-.14-1.1-.67-1.26-.09-.03-.18-.04-.27-.04-.14,0-.28.03-.41.09-6.05,2.69-8.77,9.78-6.08,15.83,1.81,4.05,5.7,6.78,10.13,7.09.28.02.56.03.83.03,4.12,0,7.96-2.13,10.15-5.62.29-.47.14-1.08-.33-1.37-.16-.1-.34-.15-.52-.15Z"/>
</svg>